<svg width="1441" height="700" viewBox="0 0 1441 700" fill="none" xmlns="http://www.w3.org/2000/svg">
<rect width="1440" height="700" fill="url(#paint0_linear_2003_1122)"/>
<path d="M1441 497.553V700H0V452.231C441.227 337.991 1179.82 367.011 1441 497.553Z" fill="url(#paint1_linear_2003_1122)"/>
<path d="M1441 525.252V700H140.854L147.102 694.506C203.207 660.826 241.394 656.482 324.225 680.522L347.741 619.09C293.227 600.895 330.362 587.239 391.435 564.78C394.653 563.597 397.938 562.389 401.278 561.155C401.278 561.155 371.758 580.134 376.761 593.619C381.765 607.104 420.792 607.603 420.792 607.603C458.262 583.941 504.204 596.442 530.712 603.655C538.893 605.881 545.223 607.603 548.881 607.603C553.226 607.603 559.771 607.878 567.36 608.196C586.858 609.013 613.249 610.12 626.935 607.603C634.61 606.192 650.848 601.606 668.668 596.573C694.991 589.139 724.769 580.729 735.51 580.134C743.437 579.694 758.438 584.285 774.714 589.265C795.42 595.601 818.19 602.568 831.077 600.611C840.68 599.152 845.231 593.867 850.328 587.949C857.445 579.684 865.626 570.184 890.118 568.147C910.88 566.42 957.408 574.322 1002.13 581.918C1047.94 589.698 1091.86 597.157 1104.27 593.619C1128.78 586.626 1204.84 568.147 1226.35 568.147C1232.43 568.147 1248.6 563.562 1270.37 557.388C1316.36 544.348 1387.33 524.222 1441 525.252Z" fill="url(#paint2_linear_2003_1122)"/>
<path d="M448.811 519.701C470.057 517.569 480.899 515.284 494.343 505.217C494.343 505.217 513.356 516.704 517.859 522.697C522.362 528.691 473.384 529.417 448.811 519.701Z" fill="url(#paint3_linear_2003_1122)"/>
<path d="M428.798 512.209C399.971 525.282 383.134 527.985 358.096 532.004C354.802 532.533 351.366 533.084 347.741 533.685C385.642 541.126 450.312 541.676 443.808 530.689C437.303 519.701 428.798 512.209 428.798 512.209Z" fill="url(#paint4_linear_2003_1122)"/>
<path d="M486.337 549.667C486.407 564.168 488.536 571.358 501.348 580.134C467.37 578.244 451.438 575.239 425.795 568.147C454.921 564.312 467.653 559.941 486.337 549.667Z" fill="url(#paint5_linear_2003_1122)"/>
<path d="M408.283 493.73C406.606 480.79 403.168 474.691 391.772 466.26C419.149 468.087 430.173 465.252 444.308 455.273C462.937 454.632 469.044 452.17 475.83 445.783C492.244 448.96 501.446 449.441 517.859 445.783C521.508 458.108 527.44 462.175 542.376 466.26C534.652 464.642 524.127 465.343 516.204 465.87C513.068 466.079 510.339 466.26 508.353 466.26H475.83C468.325 466.26 457.818 475.75 457.818 475.75C475.418 470.629 485.355 468.325 504.85 478.746C525.137 475.458 534.255 476.177 549.381 478.746C548.83 491.148 544.58 496.006 530.368 501.221C541.097 508.845 570.396 510.711 570.396 510.711C644.526 520.356 683.807 517.72 750.521 501.221C785.812 496.85 804.595 491.702 835.58 475.75C825.898 470.221 823.504 465.565 823.071 455.273C830.515 457.225 834.206 455.613 840.083 448.78C829.428 451.825 826.407 448.852 823.071 440.289C843.589 444.209 852.617 443.487 867.102 440.289C878.339 439.626 883.632 440.743 884.614 455.273C899.522 449.482 907.308 450.176 920.639 455.273C917.306 460.599 913.658 463.174 900.625 466.26C918.451 469.353 922.839 473.615 920.639 485.739C934.638 477.148 942.411 473.192 955.163 478.746C1003.53 466.167 1029.18 465.181 1074.25 466.26C1088.85 469.868 1105.48 473.857 1123.56 478.192C1218.06 500.855 1352.02 532.978 1441 569.534V497.553C1179.82 367.011 441.227 337.991 0 452.231V599.506C17.471 591.72 41.1198 587.796 71.5497 591.193C112.895 562.822 152.927 547.04 183.627 554.617C302.843 549.03 379.749 512.349 408.283 493.73Z" fill="url(#paint6_linear_2003_1122)"/>
<path fill-rule="evenodd" clip-rule="evenodd" d="M794 371.18C794 371.18 1036.5 378.18 1049 379.18C1061.5 380.18 1042.87 387.122 1035 388.68C1206.9 408.034 1310.14 425.053 1441 481.014V0H1244.18C1231.58 9.99187 1222.71 21.4881 1219.5 34.1797C1195.1 19.2807 1181.4 19.0214 1157 34.1797C1097 26.1797 1079.5 136.18 1121.5 128.68C1114.43 141.546 1113.72 147.265 1117.5 155.18L1071.5 166.68L1110 171.18C1128.5 176.18 1128 199.68 1110 196.18C1098.9 193.486 1093.75 194.262 1086.5 199.68C1060.3 204.728 1057.03 214.754 1060 238.18C1042.62 245.979 1030.59 247.342 1006 245.68C1002.8 236.777 1000.41 233.139 991 238.18C987.5 215.68 940.5 227.18 940.5 268.68C918 273.68 906.5 296.18 918 306.18C886 299.18 863 324.18 880.5 333.68C850.496 340.348 835.915 344.668 840 360.18C825.134 368.568 814.083 369.684 794 371.18ZM174 379.18C174 379.18 415 352.18 423 356.18C431 360.18 410 366.18 410 366.18C461.272 358.143 488.91 358.958 537 366.18C537 366.18 518.5 360.18 528.5 356.18C530.279 355.468 531.932 354.74 533.557 354.025C541.063 350.72 547.97 347.68 564 347.68C570.238 347.68 583.415 349.193 600.686 351.176L600.689 351.176L600.691 351.177C637.404 355.393 692.614 361.733 739 360.18C709.252 355.208 694.342 350.418 675 333.68C700 318.18 704.5 276.68 667.5 268.68C675 235.18 635.5 190.68 594.5 199.68C583 180.18 547 184.68 551 205.18C535.201 211.992 535.955 219.774 541 235.18C528.841 233.78 527.304 241.378 528.5 261.18C514.834 265.643 508.454 265.138 502 252.68C510.209 245.845 510.566 242.013 502 235.18C541 194.18 521.5 136.68 480.5 159.68C502 132.18 502 91.6796 468.5 91.6796C464 79.6796 445.5 81.1796 439.5 91.6796C391 59.1796 318 127.18 355.5 159.68C341.541 170.36 337.37 176.868 345.5 190.68C334.206 208.541 320.127 211.823 295.035 217.672L295 217.68L355.5 211.68C379.022 239.177 373.549 250.439 355.5 268.68C324.5 261.18 295 293.18 295 321.68C276.5 306.18 246.5 326.68 246.5 347.68C228.266 363.305 208.916 368.966 174.899 378.917L174 379.18Z" fill="white"/>
<path d="M511.5 388C503 403 438 401 438 389.5C438 389.5 444 347.5 480 349C516 350.5 511.5 388 511.5 388Z" fill="#946E4B"/>
<path d="M473.089 349.267C461.231 368.159 459.052 382.27 469.679 398.668C453.09 398.376 438 395.041 438 389.5C438 389.5 443.215 352.998 473.089 349.267Z" fill="#826041"/>
<path d="M495.5 331.704C498.929 324.472 499.618 319.762 499 311.204C495.5 316.705 489.5 312.705 491 308.704C483.376 309.77 479.5 312.498 473.5 322.204C472.548 317.07 472.547 314.248 475.5 309.704H469.5C479.812 296.99 485.531 293.486 495.5 300.704C498.081 296.722 505.597 300.17 504.5 303.204C515.516 307.913 518.828 311.998 512 325.704C512.54 316.991 511.687 313.42 506.5 311.204C506.407 324.399 503.582 328.374 495.5 331.704Z" fill="url(#paint7_linear_2003_1122)"/>
<path d="M493 308.5C481.642 321.628 476.127 329.781 474 351.5H484.5C485.511 333.053 488.561 324.794 497.5 313C500 309.701 495 306.188 493 308.5Z" fill="#6A5038"/>
<path d="M444.2 371.053C444.555 371.643 444.983 372 445.5 372C446.942 372 448.153 371.076 449.411 370.116C450.77 369.079 452.183 368 454 368C455.754 368 455.876 369.884 456.001 371.826C456.126 373.759 456.254 375.751 458 376C459.952 376.279 462.372 373.757 464.563 371.472C466.3 369.662 467.895 368 469 368C470.145 368 471.29 369.469 472.531 371.061C474 372.944 475.603 375 477.5 375C479.016 375 479.594 373.687 480.249 372.199C481.107 370.25 482.098 368 485.5 368C488.803 368 489.53 369.818 490.184 371.453C490.717 372.788 491.202 374 493 374C495.234 374 496.22 372.129 497.091 370.476C497.78 369.17 498.396 368 499.5 368C500.516 368 501.202 368.826 501.96 369.74C503.067 371.073 504.329 372.594 507 372C507.959 371.787 508.896 371.301 509.776 370.668C506.726 360.622 499.01 349.792 480 349C460.623 348.193 449.937 359.988 444.2 371.053Z" fill="url(#paint8_linear_2003_1122)"/>
<defs>
<linearGradient id="paint0_linear_2003_1122" x1="720" y1="0" x2="720" y2="700" gradientUnits="userSpaceOnUse">
<stop stop-color="#60C0FF"/>
<stop offset="0.64" stop-color="#DCF1FF"/>
</linearGradient>
<linearGradient id="paint1_linear_2003_1122" x1="0" y1="540.5" x2="1441" y2="540.5" gradientUnits="userSpaceOnUse">
<stop stop-color="#3D92E0"/>
<stop offset="0.575" stop-color="#82B7E8"/>
</linearGradient>
<linearGradient id="paint2_linear_2003_1122" x1="0" y1="540.5" x2="1441" y2="540.5" gradientUnits="userSpaceOnUse">
<stop stop-color="#3D92E0"/>
<stop offset="1" stop-color="#4E85B7"/>
</linearGradient>
<linearGradient id="paint3_linear_2003_1122" x1="0" y1="540.5" x2="1441" y2="540.5" gradientUnits="userSpaceOnUse">
<stop stop-color="#3D92E0"/>
<stop offset="1" stop-color="#4E85B7"/>
</linearGradient>
<linearGradient id="paint4_linear_2003_1122" x1="0" y1="540.5" x2="1441" y2="540.5" gradientUnits="userSpaceOnUse">
<stop stop-color="#3D92E0"/>
<stop offset="1" stop-color="#4E85B7"/>
</linearGradient>
<linearGradient id="paint5_linear_2003_1122" x1="0" y1="540.5" x2="1441" y2="540.5" gradientUnits="userSpaceOnUse">
<stop stop-color="#3D92E0"/>
<stop offset="1" stop-color="#4E85B7"/>
</linearGradient>
<linearGradient id="paint6_linear_2003_1122" x1="0" y1="540.5" x2="1441" y2="540.5" gradientUnits="userSpaceOnUse">
<stop offset="0.115" stop-color="white"/>
<stop offset="1" stop-color="#82B7E8"/>
</linearGradient>
<linearGradient id="paint7_linear_2003_1122" x1="476.774" y1="297" x2="476.774" y2="398.688" gradientUnits="userSpaceOnUse">
<stop stop-color="#79C036"/>
<stop offset="1" stop-color="#48622F"/>
</linearGradient>
<linearGradient id="paint8_linear_2003_1122" x1="476.774" y1="297" x2="476.774" y2="398.688" gradientUnits="userSpaceOnUse">
<stop stop-color="#79C036"/>
<stop offset="1" stop-color="#48622F"/>
</linearGradient>
</defs>
</svg>
